# Written by Marlamin's WoW Export Tools. Source file: world/generic/human/passive doodads/plates/generaldirtyplate01.m2
mtllib generaldirtyplate01.mtl
v -0.000797222019173205 0.00663417018949986 0.00356943998485804
vt 0.5 0.5
vn 0.000000094202 -1.000000000000 -0.000000000977
v -0.198661997914314 0.0825425013899803 0.346271991729736
vt 0.984951972961426 0.257524013519287
vn 0.094193898141 -0.982095003128 -0.163148999214
v -0.396521985530853 0.0825425013899803 0.00356943998485804
vt 0.5 0.0150480270385742
vn 0.188388004899 -0.982095003128 -0.000000005600
v 0.197059005498886 0.0825425013899803 -0.339132994413376
vt 0.015048099681735 0.742475986480713
vn -0.094193696976 -0.982095003128 0.163148999214
v 0.394919008016586 0.0825425013899803 0.00356943998485804
vt 0.5 0.984951900318265
vn -0.188388004899 -0.982095003128 0.000000017506
v 0.197059005498886 0.0825425013899803 0.346271991729736
vt 0.984951972961426 0.742475986480713
vn -0.094193801284 -0.982095003128 -0.163148999214
v -0.198661997914314 0.0825425013899803 -0.339132994413376
vt 0.015048099681735 0.257524013519287
vn 0.094193898141 -0.982095003128 0.163148999214
o generaldirtyplate01.m2
g 0
usemtl plate_01
s 1
f 1/1/1 2/2/2 3/3/3
f 1/1/1 4/4/4 5/5/5
f 1/1/1 5/5/5 6/6/6
f 1/1/1 6/6/6 2/2/2
f 1/1/1 7/7/7 4/4/4
f 1/1/1 3/3/3 7/7/7
